<mxfile host="Electron" modified="2024-04-07T23:55:22.735Z" agent="Mozilla/5.0 (Windows NT 10.0; Win64; x64) AppleWebKit/537.36 (KHTML, like Gecko) draw.io/24.1.0 Chrome/120.0.6099.109 Electron/28.1.0 Safari/537.36" etag="jiIDUa3wVM0BSJi1XFqw" version="24.1.0" type="device">
  <diagram name="Página-1" id="ag45uKHdxFGsZxhJt5Lo">
    <mxGraphModel dx="1420" dy="830" grid="1" gridSize="10" guides="1" tooltips="1" connect="1" arrows="1" fold="1" page="1" pageScale="1" pageWidth="827" pageHeight="1169" background="#CCE5FF" math="0" shadow="0">
      <root>
        <mxCell id="0" />
        <mxCell id="1" parent="0" />
        <mxCell id="8AFYn0_pGxaIrFMuhoYK-1" value="&lt;b style=&quot;font-size: 16px;&quot;&gt;&lt;font style=&quot;font-size: 16px;&quot; color=&quot;#000000&quot; face=&quot;Comic Sans MS&quot;&gt;21 Se define como divisores propios de un número a aquellos que son sus divisores excluyendo al número en sí mismo.&lt;br&gt;Ejemplo A. Los divisores propios del 4 son: 1 y 2.&lt;br&gt;Ejemplo B. Los divisores propios del 12 son: 1, 2, 3, 4 y 6.&lt;br&gt;Se define a un número como perfecto cuando la suma de todos sus divisores propios coincide con el número en sí mismo.&lt;br&gt;Ejemplo A: 6 es número perfecto pues 1+2+3=6&lt;br&gt;Ejemplo B: 28 es número perfecto pues 1+2+4+7+14=28&lt;br&gt;Ejemplo C: 12 no es número perfecto pues 1+2+3+4+6=16 &lt;br&gt;&lt;br&gt;Hacer un programa para ingresar un número y luego informar con un cartel aclaratorio si el mismo es un número perfecto o no es número perfecto&lt;/font&gt;&lt;/b&gt;" style="text;whiteSpace=wrap;html=1;fontFamily=Architects Daughter;fontSource=https%3A%2F%2Ffonts.googleapis.com%2Fcss%3Ffamily%3DArchitects%2BDaughter;" vertex="1" parent="1">
          <mxGeometry x="130" y="10" width="970" height="230" as="geometry" />
        </mxCell>
        <mxCell id="8AFYn0_pGxaIrFMuhoYK-55" value="" style="group;aspect=fixed;" vertex="1" connectable="0" parent="1">
          <mxGeometry x="258" y="270" width="492.6500000000001" height="944" as="geometry" />
        </mxCell>
        <mxCell id="8AFYn0_pGxaIrFMuhoYK-54" value="" style="edgeStyle=orthogonalEdgeStyle;rounded=0;sketch=1;hachureGap=4;jiggle=2;curveFitting=1;orthogonalLoop=1;jettySize=auto;html=1;fontFamily=Architects Daughter;fontSource=https%3A%2F%2Ffonts.googleapis.com%2Fcss%3Ffamily%3DArchitects%2BDaughter;" edge="1" parent="8AFYn0_pGxaIrFMuhoYK-55" source="8AFYn0_pGxaIrFMuhoYK-31" target="8AFYn0_pGxaIrFMuhoYK-52">
          <mxGeometry relative="1" as="geometry" />
        </mxCell>
        <mxCell id="8AFYn0_pGxaIrFMuhoYK-31" value="" style="line;strokeWidth=2;direction=south;html=1;hachureGap=4;fontFamily=Architects Daughter;fontSource=https://fonts.googleapis.com/css?family=Architects+Daughter;strokeColor=#000000;container=0;" vertex="1" parent="8AFYn0_pGxaIrFMuhoYK-55">
          <mxGeometry x="177" y="807" width="10" height="47" as="geometry" />
        </mxCell>
        <mxCell id="8AFYn0_pGxaIrFMuhoYK-32" value="" style="line;strokeWidth=2;direction=south;html=1;hachureGap=4;fontFamily=Architects Daughter;fontSource=https://fonts.googleapis.com/css?family=Architects+Daughter;strokeColor=#000000;container=0;" vertex="1" parent="8AFYn0_pGxaIrFMuhoYK-55">
          <mxGeometry x="177" y="715" width="10" height="50" as="geometry" />
        </mxCell>
        <mxCell id="8AFYn0_pGxaIrFMuhoYK-33" value="" style="line;strokeWidth=2;direction=south;html=1;hachureGap=4;fontFamily=Architects Daughter;fontSource=https://fonts.googleapis.com/css?family=Architects+Daughter;strokeColor=#000000;container=0;" vertex="1" parent="8AFYn0_pGxaIrFMuhoYK-55">
          <mxGeometry x="290" y="610" width="10" height="44" as="geometry" />
        </mxCell>
        <mxCell id="8AFYn0_pGxaIrFMuhoYK-37" value="" style="line;strokeWidth=2;html=1;perimeter=backbonePerimeter;points=[];outlineConnect=0;hachureGap=4;fontFamily=Architects Daughter;fontSource=https://fonts.googleapis.com/css?family=Architects+Daughter;strokeColor=#000000;container=0;" vertex="1" parent="8AFYn0_pGxaIrFMuhoYK-55">
          <mxGeometry x="181" y="849" width="229" height="10" as="geometry" />
        </mxCell>
        <mxCell id="8AFYn0_pGxaIrFMuhoYK-38" value="" style="line;strokeWidth=2;html=1;perimeter=backbonePerimeter;points=[];outlineConnect=0;hachureGap=4;fontFamily=Architects Daughter;fontSource=https://fonts.googleapis.com/css?family=Architects+Daughter;strokeColor=#000000;container=0;" vertex="1" parent="8AFYn0_pGxaIrFMuhoYK-55">
          <mxGeometry x="350" y="710" width="60" height="10" as="geometry" />
        </mxCell>
        <mxCell id="8AFYn0_pGxaIrFMuhoYK-39" value="" style="line;strokeWidth=2;html=1;perimeter=backbonePerimeter;points=[];outlineConnect=0;hachureGap=4;fontFamily=Architects Daughter;fontSource=https://fonts.googleapis.com/css?family=Architects+Daughter;strokeColor=#000000;container=0;" vertex="1" parent="8AFYn0_pGxaIrFMuhoYK-55">
          <mxGeometry x="180" y="710" width="60" height="10" as="geometry" />
        </mxCell>
        <mxCell id="8AFYn0_pGxaIrFMuhoYK-40" value="" style="line;strokeWidth=2;direction=south;html=1;hachureGap=4;fontFamily=Architects Daughter;fontSource=https://fonts.googleapis.com/css?family=Architects+Daughter;strokeColor=#000000;container=0;" vertex="1" parent="8AFYn0_pGxaIrFMuhoYK-55">
          <mxGeometry x="284" y="854" width="10" height="40" as="geometry" />
        </mxCell>
        <mxCell id="8AFYn0_pGxaIrFMuhoYK-41" value="" style="line;strokeWidth=2;direction=south;html=1;hachureGap=4;fontFamily=Architects Daughter;fontSource=https://fonts.googleapis.com/css?family=Architects+Daughter;strokeColor=#000000;container=0;" vertex="1" parent="8AFYn0_pGxaIrFMuhoYK-55">
          <mxGeometry x="405" y="715" width="10" height="50" as="geometry" />
        </mxCell>
        <mxCell id="8AFYn0_pGxaIrFMuhoYK-42" value="" style="line;strokeWidth=2;direction=south;html=1;hachureGap=4;fontFamily=Architects Daughter;fontSource=https://fonts.googleapis.com/css?family=Architects+Daughter;strokeColor=#000000;container=0;" vertex="1" parent="8AFYn0_pGxaIrFMuhoYK-55">
          <mxGeometry x="405" y="807" width="10" height="47" as="geometry" />
        </mxCell>
        <mxCell id="8AFYn0_pGxaIrFMuhoYK-52" value="&lt;b&gt;&lt;font color=&quot;#000000&quot; style=&quot;font-size: 13px;&quot; face=&quot;Comic Sans MS&quot;&gt;V&lt;/font&gt;&lt;/b&gt;" style="text;strokeColor=none;align=center;fillColor=none;html=1;verticalAlign=middle;whiteSpace=wrap;rounded=0;fontFamily=Architects Daughter;fontSource=https://fonts.googleapis.com/css?family=Architects+Daughter;container=0;" vertex="1" parent="8AFYn0_pGxaIrFMuhoYK-55">
          <mxGeometry x="168" y="695" width="30" height="25" as="geometry" />
        </mxCell>
        <mxCell id="8AFYn0_pGxaIrFMuhoYK-53" value="&lt;b&gt;&lt;font color=&quot;#000000&quot; style=&quot;font-size: 13px;&quot; face=&quot;Comic Sans MS&quot;&gt;F&lt;/font&gt;&lt;/b&gt;" style="text;strokeColor=none;align=center;fillColor=none;html=1;verticalAlign=middle;whiteSpace=wrap;rounded=0;fontFamily=Architects Daughter;fontSource=https://fonts.googleapis.com/css?family=Architects+Daughter;container=0;" vertex="1" parent="8AFYn0_pGxaIrFMuhoYK-55">
          <mxGeometry x="392" y="693" width="30" height="25" as="geometry" />
        </mxCell>
        <mxCell id="8AFYn0_pGxaIrFMuhoYK-4" value="" style="whiteSpace=wrap;html=1;rounded=0;labelBackgroundColor=none;strokeColor=#000000;strokeWidth=2;align=center;verticalAlign=middle;fontFamily=Helvetica;fontSize=12;fontColor=default;fillColor=#d5e8d4;container=0;" vertex="1" parent="8AFYn0_pGxaIrFMuhoYK-55">
          <mxGeometry x="85.35000000000002" y="190" width="407.3" height="420" as="geometry" />
        </mxCell>
        <mxCell id="8AFYn0_pGxaIrFMuhoYK-5" value="" style="line;strokeWidth=2;direction=south;html=1;hachureGap=4;fontFamily=Architects Daughter;fontSource=https://fonts.googleapis.com/css?family=Architects+Daughter;strokeColor=#000000;container=0;" vertex="1" parent="8AFYn0_pGxaIrFMuhoYK-55">
          <mxGeometry x="284" y="50" width="10" height="50" as="geometry" />
        </mxCell>
        <mxCell id="8AFYn0_pGxaIrFMuhoYK-6" value="" style="line;strokeWidth=2;direction=south;html=1;hachureGap=4;fontFamily=Architects Daughter;fontSource=https://fonts.googleapis.com/css?family=Architects+Daughter;strokeColor=#000000;container=0;" vertex="1" parent="8AFYn0_pGxaIrFMuhoYK-55">
          <mxGeometry x="284" y="140" width="10" height="50" as="geometry" />
        </mxCell>
        <mxCell id="8AFYn0_pGxaIrFMuhoYK-7" value="" style="line;strokeWidth=2;html=1;perimeter=backbonePerimeter;points=[];outlineConnect=0;hachureGap=4;fontFamily=Architects Daughter;fontSource=https://fonts.googleapis.com/css?family=Architects+Daughter;strokeColor=#000000;container=0;" vertex="1" parent="8AFYn0_pGxaIrFMuhoYK-55">
          <mxGeometry x="230" y="325" width="34" height="10" as="geometry" />
        </mxCell>
        <mxCell id="8AFYn0_pGxaIrFMuhoYK-8" value="" style="line;strokeWidth=2;direction=south;html=1;hachureGap=4;fontFamily=Architects Daughter;fontSource=https://fonts.googleapis.com/css?family=Architects+Daughter;strokeColor=#000000;container=0;" vertex="1" parent="8AFYn0_pGxaIrFMuhoYK-55">
          <mxGeometry x="228" y="330" width="10" height="80" as="geometry" />
        </mxCell>
        <mxCell id="8AFYn0_pGxaIrFMuhoYK-9" value="" style="line;strokeWidth=2;html=1;perimeter=backbonePerimeter;points=[];outlineConnect=0;hachureGap=4;fontFamily=Architects Daughter;fontSource=https://fonts.googleapis.com/css?family=Architects+Daughter;strokeColor=#000000;container=0;" vertex="1" parent="8AFYn0_pGxaIrFMuhoYK-55">
          <mxGeometry x="394" y="325" width="46" height="10" as="geometry" />
        </mxCell>
        <mxCell id="8AFYn0_pGxaIrFMuhoYK-10" value="" style="line;strokeWidth=2;direction=south;html=1;hachureGap=4;fontFamily=Architects Daughter;fontSource=https://fonts.googleapis.com/css?family=Architects+Daughter;strokeColor=#000000;container=0;" vertex="1" parent="8AFYn0_pGxaIrFMuhoYK-55">
          <mxGeometry x="434" y="330" width="10" height="160" as="geometry" />
        </mxCell>
        <mxCell id="8AFYn0_pGxaIrFMuhoYK-11" value="" style="line;strokeWidth=2;direction=south;html=1;hachureGap=4;fontFamily=Architects Daughter;fontSource=https://fonts.googleapis.com/css?family=Architects+Daughter;strokeColor=#000000;container=0;" vertex="1" parent="8AFYn0_pGxaIrFMuhoYK-55">
          <mxGeometry x="228" y="450" width="10" height="40" as="geometry" />
        </mxCell>
        <mxCell id="8AFYn0_pGxaIrFMuhoYK-12" value="" style="line;strokeWidth=2;html=1;perimeter=backbonePerimeter;points=[];outlineConnect=0;hachureGap=4;fontFamily=Architects Daughter;fontSource=https://fonts.googleapis.com/css?family=Architects+Daughter;strokeColor=#000000;container=0;" vertex="1" parent="8AFYn0_pGxaIrFMuhoYK-55">
          <mxGeometry x="232" y="484" width="208" height="10" as="geometry" />
        </mxCell>
        <mxCell id="8AFYn0_pGxaIrFMuhoYK-13" value="" style="strokeWidth=2;html=1;shape=mxgraph.flowchart.start_2;whiteSpace=wrap;rounded=0;labelBackgroundColor=none;strokeColor=#000000;align=center;verticalAlign=middle;fontFamily=Helvetica;fontSize=12;fontColor=default;fillColor=#d5e8d4;container=0;" vertex="1" parent="8AFYn0_pGxaIrFMuhoYK-55">
          <mxGeometry x="264" width="50" height="50" as="geometry" />
        </mxCell>
        <mxCell id="8AFYn0_pGxaIrFMuhoYK-14" value="&lt;font size=&quot;1&quot; color=&quot;#000000&quot; face=&quot;Comic Sans MS&quot;&gt;&lt;b style=&quot;font-size: 21px;&quot;&gt;I&lt;/b&gt;&lt;/font&gt;" style="text;strokeColor=none;align=center;fillColor=none;html=1;verticalAlign=middle;whiteSpace=wrap;rounded=0;fontFamily=Architects Daughter;fontSource=https%3A%2F%2Ffonts.googleapis.com%2Fcss%3Ffamily%3DArchitects%2BDaughter;container=0;" vertex="1" parent="8AFYn0_pGxaIrFMuhoYK-55">
          <mxGeometry x="269" y="5" width="40" height="40" as="geometry" />
        </mxCell>
        <mxCell id="8AFYn0_pGxaIrFMuhoYK-15" value="" style="shape=trapezoid;perimeter=trapezoidPerimeter;whiteSpace=wrap;html=1;fixedSize=1;rounded=0;labelBackgroundColor=none;strokeColor=#121211;strokeWidth=2;align=center;verticalAlign=middle;fontFamily=Helvetica;fontSize=12;fontColor=default;fillColor=#d5e8d4;direction=west;container=0;" vertex="1" parent="8AFYn0_pGxaIrFMuhoYK-55">
          <mxGeometry x="214" y="100" width="150" height="40" as="geometry">
            <mxRectangle x="-1020" y="-650" width="50" height="40" as="alternateBounds" />
          </mxGeometry>
        </mxCell>
        <mxCell id="8AFYn0_pGxaIrFMuhoYK-16" value="&lt;font face=&quot;Comic Sans MS&quot; color=&quot;#000000&quot;&gt;&lt;span style=&quot;font-size: 16px;&quot;&gt;&lt;b&gt;num&lt;/b&gt;&lt;/span&gt;&lt;/font&gt;" style="text;strokeColor=none;align=center;fillColor=none;html=1;verticalAlign=middle;whiteSpace=wrap;rounded=0;fontFamily=Architects Daughter;fontSource=https://fonts.googleapis.com/css?family=Architects+Daughter;container=0;" vertex="1" parent="8AFYn0_pGxaIrFMuhoYK-55">
          <mxGeometry x="259" y="105" width="60" height="30" as="geometry" />
        </mxCell>
        <mxCell id="8AFYn0_pGxaIrFMuhoYK-17" value="" style="ellipse;whiteSpace=wrap;html=1;aspect=fixed;rounded=0;labelBackgroundColor=none;strokeColor=#0F140C;strokeWidth=3;align=center;verticalAlign=middle;fontFamily=Helvetica;fontSize=12;fontColor=default;fillColor=#d5e8d4;container=0;" vertex="1" parent="8AFYn0_pGxaIrFMuhoYK-55">
          <mxGeometry y="215" width="170" height="170" as="geometry" />
        </mxCell>
        <mxCell id="8AFYn0_pGxaIrFMuhoYK-18" value="" style="endArrow=none;html=1;rounded=0;strokeColor=#0F140C;fontFamily=Helvetica;fontSize=12;fontColor=default;fillColor=#B2C9AB;strokeWidth=2;" edge="1" parent="8AFYn0_pGxaIrFMuhoYK-55">
          <mxGeometry width="50" height="50" relative="1" as="geometry">
            <mxPoint x="163.20000000000005" y="262.6" as="sourcePoint" />
            <mxPoint x="6.800000000000011" y="262.6" as="targetPoint" />
          </mxGeometry>
        </mxCell>
        <mxCell id="8AFYn0_pGxaIrFMuhoYK-19" value="" style="endArrow=none;html=1;rounded=0;strokeColor=#0F140C;fontFamily=Helvetica;fontSize=12;fontColor=default;fillColor=#B2C9AB;exitX=0.264;exitY=0.952;exitDx=0;exitDy=0;exitPerimeter=0;strokeWidth=2;" edge="1" parent="8AFYn0_pGxaIrFMuhoYK-55" source="8AFYn0_pGxaIrFMuhoYK-17">
          <mxGeometry width="50" height="50" relative="1" as="geometry">
            <mxPoint x="40.80000000000001" y="317.0000000000001" as="sourcePoint" />
            <mxPoint x="47.60000000000002" y="262.6" as="targetPoint" />
          </mxGeometry>
        </mxCell>
        <mxCell id="8AFYn0_pGxaIrFMuhoYK-20" value="" style="endArrow=none;html=1;rounded=0;strokeColor=#0F140C;fontFamily=Helvetica;fontSize=12;fontColor=default;fillColor=#B2C9AB;exitX=0.728;exitY=0.948;exitDx=0;exitDy=0;exitPerimeter=0;strokeWidth=2;" edge="1" parent="8AFYn0_pGxaIrFMuhoYK-55" source="8AFYn0_pGxaIrFMuhoYK-17">
          <mxGeometry width="50" height="50" relative="1" as="geometry">
            <mxPoint x="102" y="330.60000000000014" as="sourcePoint" />
            <mxPoint x="123.75999999999999" y="262.6" as="targetPoint" />
          </mxGeometry>
        </mxCell>
        <mxCell id="8AFYn0_pGxaIrFMuhoYK-21" value="&lt;font size=&quot;1&quot; face=&quot;Comic Sans MS&quot; color=&quot;#000000&quot;&gt;&lt;b style=&quot;font-size: 20px;&quot;&gt;x&lt;/b&gt;&lt;/font&gt;" style="text;strokeColor=none;align=center;fillColor=none;html=1;verticalAlign=middle;whiteSpace=wrap;rounded=0;fontFamily=Architects Daughter;fontSource=https://fonts.googleapis.com/css?family=Architects+Daughter;container=0;" vertex="1" parent="8AFYn0_pGxaIrFMuhoYK-55">
          <mxGeometry x="55" y="225" width="60" height="30" as="geometry" />
        </mxCell>
        <mxCell id="8AFYn0_pGxaIrFMuhoYK-22" value="&lt;font size=&quot;1&quot; face=&quot;Comic Sans MS&quot; color=&quot;#000000&quot;&gt;&lt;b style=&quot;font-size: 14px;&quot;&gt;x = 1&lt;/b&gt;&lt;/font&gt;" style="text;strokeColor=none;align=center;fillColor=none;html=1;verticalAlign=middle;whiteSpace=wrap;rounded=0;fontFamily=Architects Daughter;fontSource=https://fonts.googleapis.com/css?family=Architects+Daughter;container=0;" vertex="1" parent="8AFYn0_pGxaIrFMuhoYK-55">
          <mxGeometry x="3" y="297" width="40" height="20" as="geometry" />
        </mxCell>
        <mxCell id="8AFYn0_pGxaIrFMuhoYK-23" value="&lt;font size=&quot;1&quot; face=&quot;Comic Sans MS&quot; color=&quot;#000000&quot;&gt;&lt;b style=&quot;font-size: 14px;&quot;&gt;x &amp;lt; num&lt;/b&gt;&lt;/font&gt;" style="text;strokeColor=none;align=center;fillColor=none;html=1;verticalAlign=middle;whiteSpace=wrap;rounded=0;fontFamily=Architects Daughter;fontSource=https://fonts.googleapis.com/css?family=Architects+Daughter;container=0;" vertex="1" parent="8AFYn0_pGxaIrFMuhoYK-55">
          <mxGeometry x="50" y="297" width="70" height="20" as="geometry" />
        </mxCell>
        <mxCell id="8AFYn0_pGxaIrFMuhoYK-24" value="&lt;font size=&quot;1&quot; face=&quot;Comic Sans MS&quot; color=&quot;#000000&quot;&gt;&lt;b style=&quot;font-size: 16px;&quot;&gt;x++&lt;/b&gt;&lt;/font&gt;" style="text;strokeColor=none;align=center;fillColor=none;html=1;verticalAlign=middle;whiteSpace=wrap;rounded=0;fontFamily=Architects Daughter;fontSource=https://fonts.googleapis.com/css?family=Architects+Daughter;container=0;" vertex="1" parent="8AFYn0_pGxaIrFMuhoYK-55">
          <mxGeometry x="127" y="297" width="40" height="20" as="geometry" />
        </mxCell>
        <mxCell id="8AFYn0_pGxaIrFMuhoYK-25" value="" style="rhombus;whiteSpace=wrap;html=1;rounded=0;labelBackgroundColor=none;strokeColor=#0F140C;strokeWidth=2;align=center;verticalAlign=middle;fontFamily=Helvetica;fontSize=12;fontColor=default;fillColor=#d5e8d4;container=0;" vertex="1" parent="8AFYn0_pGxaIrFMuhoYK-55">
          <mxGeometry x="264" y="275" width="130" height="110" as="geometry" />
        </mxCell>
        <mxCell id="8AFYn0_pGxaIrFMuhoYK-26" value="&lt;font style=&quot;font-size: 15px;&quot;&gt;&lt;b&gt;&lt;font style=&quot;font-size: 15px;&quot; color=&quot;#000000&quot; face=&quot;Comic Sans MS&quot;&gt;num %&amp;nbsp;&lt;/font&gt;&lt;/b&gt;&lt;b style=&quot;background-color: initial;&quot;&gt;&lt;font style=&quot;font-size: 15px;&quot; color=&quot;#000000&quot; face=&quot;Comic Sans MS&quot;&gt;x&lt;/font&gt;&lt;/b&gt;&lt;/font&gt;&lt;div style=&quot;font-size: 15px;&quot;&gt;&lt;b style=&quot;background-color: initial;&quot;&gt;&lt;font style=&quot;font-size: 15px;&quot; color=&quot;#000000&quot; face=&quot;Comic Sans MS&quot;&gt;==&lt;/font&gt;&lt;/b&gt;&lt;/div&gt;&lt;div style=&quot;font-size: 15px;&quot;&gt;&lt;b style=&quot;background-color: initial;&quot;&gt;&lt;font style=&quot;font-size: 15px;&quot; color=&quot;#000000&quot; face=&quot;Comic Sans MS&quot;&gt;0&lt;/font&gt;&lt;/b&gt;&lt;/div&gt;" style="text;strokeColor=none;align=center;fillColor=none;html=1;verticalAlign=middle;whiteSpace=wrap;rounded=0;fontFamily=Architects Daughter;fontSource=https%3A%2F%2Ffonts.googleapis.com%2Fcss%3Ffamily%3DArchitects%2BDaughter;container=0;" vertex="1" parent="8AFYn0_pGxaIrFMuhoYK-55">
          <mxGeometry x="294" y="305" width="70" height="60" as="geometry" />
        </mxCell>
        <mxCell id="8AFYn0_pGxaIrFMuhoYK-27" value="&lt;b&gt;&lt;font color=&quot;#000000&quot; style=&quot;font-size: 13px;&quot; face=&quot;Comic Sans MS&quot;&gt;V&lt;/font&gt;&lt;/b&gt;" style="text;strokeColor=none;align=center;fillColor=none;html=1;verticalAlign=middle;whiteSpace=wrap;rounded=0;fontFamily=Architects Daughter;fontSource=https%3A%2F%2Ffonts.googleapis.com%2Fcss%3Ffamily%3DArchitects%2BDaughter;container=0;" vertex="1" parent="8AFYn0_pGxaIrFMuhoYK-55">
          <mxGeometry x="218" y="308" width="30" height="25" as="geometry" />
        </mxCell>
        <mxCell id="8AFYn0_pGxaIrFMuhoYK-28" value="&lt;b&gt;&lt;font color=&quot;#000000&quot; style=&quot;font-size: 13px;&quot; face=&quot;Comic Sans MS&quot;&gt;F&lt;/font&gt;&lt;/b&gt;" style="text;strokeColor=none;align=center;fillColor=none;html=1;verticalAlign=middle;whiteSpace=wrap;rounded=0;fontFamily=Architects Daughter;fontSource=https://fonts.googleapis.com/css?family=Architects+Daughter;container=0;" vertex="1" parent="8AFYn0_pGxaIrFMuhoYK-55">
          <mxGeometry x="419" y="309" width="30" height="25" as="geometry" />
        </mxCell>
        <mxCell id="8AFYn0_pGxaIrFMuhoYK-29" value="" style="rounded=0;whiteSpace=wrap;html=1;labelBackgroundColor=none;strokeColor=#0f100e;strokeWidth=2;align=center;verticalAlign=middle;fontFamily=Helvetica;fontSize=12;fontColor=default;fillColor=#d5e8d4;container=0;" vertex="1" parent="8AFYn0_pGxaIrFMuhoYK-55">
          <mxGeometry x="173" y="410" width="120" height="40" as="geometry" />
        </mxCell>
        <mxCell id="8AFYn0_pGxaIrFMuhoYK-30" value="&lt;font size=&quot;1&quot; face=&quot;Comic Sans MS&quot; color=&quot;#000000&quot;&gt;&lt;b style=&quot;font-size: 15px;&quot;&gt;acu_div += x&lt;/b&gt;&lt;/font&gt;" style="text;strokeColor=none;align=center;fillColor=none;html=1;verticalAlign=middle;whiteSpace=wrap;rounded=0;fontFamily=Architects Daughter;fontSource=https://fonts.googleapis.com/css?family=Architects+Daughter;container=0;" vertex="1" parent="8AFYn0_pGxaIrFMuhoYK-55">
          <mxGeometry x="183" y="417.5" width="100" height="25" as="geometry" />
        </mxCell>
        <mxCell id="8AFYn0_pGxaIrFMuhoYK-35" value="" style="rhombus;whiteSpace=wrap;html=1;rounded=0;labelBackgroundColor=none;strokeColor=#0F140C;strokeWidth=2;align=center;verticalAlign=middle;fontFamily=Helvetica;fontSize=12;fontColor=default;fillColor=#d5e8d4;container=0;" vertex="1" parent="8AFYn0_pGxaIrFMuhoYK-55">
          <mxGeometry x="240" y="654" width="110" height="120" as="geometry" />
        </mxCell>
        <mxCell id="8AFYn0_pGxaIrFMuhoYK-36" value="&lt;b&gt;&lt;font style=&quot;font-size: 15px;&quot; color=&quot;#000000&quot; face=&quot;Comic Sans MS&quot;&gt;acu_div&lt;/font&gt;&lt;/b&gt;&lt;div&gt;&lt;b&gt;&lt;font style=&quot;font-size: 15px;&quot; color=&quot;#000000&quot; face=&quot;Comic Sans MS&quot;&gt;==&lt;/font&gt;&lt;/b&gt;&lt;/div&gt;&lt;div&gt;&lt;font face=&quot;Comic Sans MS&quot; color=&quot;#000000&quot;&gt;&lt;span style=&quot;font-size: 15px;&quot;&gt;&lt;b&gt;num&lt;/b&gt;&lt;/span&gt;&lt;/font&gt;&lt;/div&gt;" style="text;strokeColor=none;align=center;fillColor=none;html=1;verticalAlign=middle;whiteSpace=wrap;rounded=0;fontFamily=Architects Daughter;fontSource=https%3A%2F%2Ffonts.googleapis.com%2Fcss%3Ffamily%3DArchitects%2BDaughter;container=0;" vertex="1" parent="8AFYn0_pGxaIrFMuhoYK-55">
          <mxGeometry x="260" y="685" width="70" height="60" as="geometry" />
        </mxCell>
        <mxCell id="8AFYn0_pGxaIrFMuhoYK-44" value="" style="shape=trapezoid;perimeter=trapezoidPerimeter;whiteSpace=wrap;html=1;fixedSize=1;rounded=0;labelBackgroundColor=none;strokeColor=#0F140C;strokeWidth=2;align=center;verticalAlign=middle;fontFamily=Helvetica;fontSize=12;fontColor=default;fillColor=#d5e8d4;container=0;" vertex="1" parent="8AFYn0_pGxaIrFMuhoYK-55">
          <mxGeometry x="350" y="767" width="120" height="40" as="geometry" />
        </mxCell>
        <mxCell id="8AFYn0_pGxaIrFMuhoYK-45" value="&lt;b&gt;&lt;font style=&quot;font-size: 15px;&quot; color=&quot;#000000&quot; face=&quot;Comic Sans MS&quot;&gt;no_perfecto&lt;/font&gt;&lt;/b&gt;" style="text;strokeColor=none;align=center;fillColor=none;html=1;verticalAlign=middle;whiteSpace=wrap;rounded=0;fontFamily=Architects Daughter;fontSource=https://fonts.googleapis.com/css?family=Architects+Daughter;container=0;" vertex="1" parent="8AFYn0_pGxaIrFMuhoYK-55">
          <mxGeometry x="365" y="767" width="90" height="40" as="geometry" />
        </mxCell>
        <mxCell id="8AFYn0_pGxaIrFMuhoYK-47" value="" style="shape=trapezoid;perimeter=trapezoidPerimeter;whiteSpace=wrap;html=1;fixedSize=1;rounded=0;labelBackgroundColor=none;strokeColor=#0F140C;strokeWidth=2;align=center;verticalAlign=middle;fontFamily=Helvetica;fontSize=12;fontColor=default;fillColor=#d5e8d4;container=0;" vertex="1" parent="8AFYn0_pGxaIrFMuhoYK-55">
          <mxGeometry x="120" y="767" width="120" height="40" as="geometry" />
        </mxCell>
        <mxCell id="8AFYn0_pGxaIrFMuhoYK-48" value="&lt;b&gt;&lt;font style=&quot;font-size: 15px;&quot; color=&quot;#000000&quot; face=&quot;Comic Sans MS&quot;&gt;perfecto&lt;/font&gt;&lt;/b&gt;" style="text;strokeColor=none;align=center;fillColor=none;html=1;verticalAlign=middle;whiteSpace=wrap;rounded=0;fontFamily=Architects Daughter;fontSource=https%3A%2F%2Ffonts.googleapis.com%2Fcss%3Ffamily%3DArchitects%2BDaughter;container=0;" vertex="1" parent="8AFYn0_pGxaIrFMuhoYK-55">
          <mxGeometry x="140" y="772" width="80" height="30" as="geometry" />
        </mxCell>
        <mxCell id="8AFYn0_pGxaIrFMuhoYK-50" value="" style="strokeWidth=2;html=1;shape=mxgraph.flowchart.start_2;whiteSpace=wrap;rounded=0;labelBackgroundColor=none;strokeColor=#000000;align=center;verticalAlign=middle;fontFamily=Helvetica;fontSize=12;fontColor=default;fillColor=#d5e8d4;container=0;" vertex="1" parent="8AFYn0_pGxaIrFMuhoYK-55">
          <mxGeometry x="264" y="894" width="50" height="50" as="geometry" />
        </mxCell>
        <mxCell id="8AFYn0_pGxaIrFMuhoYK-51" value="&lt;font size=&quot;1&quot; color=&quot;#000000&quot; face=&quot;Comic Sans MS&quot;&gt;&lt;b style=&quot;font-size: 21px;&quot;&gt;I&lt;/b&gt;&lt;/font&gt;" style="text;strokeColor=none;align=center;fillColor=none;html=1;verticalAlign=middle;whiteSpace=wrap;rounded=0;fontFamily=Architects Daughter;fontSource=https://fonts.googleapis.com/css?family=Architects+Daughter;container=0;" vertex="1" parent="8AFYn0_pGxaIrFMuhoYK-55">
          <mxGeometry x="269" y="899" width="40" height="40" as="geometry" />
        </mxCell>
      </root>
    </mxGraphModel>
  </diagram>
</mxfile>
